<svg xmlns="http://www.w3.org/2000/svg" xml:space="preserve" style="enable-background:new 0 0 1080 1080" viewBox="0 0 1080 1080"><switch><g><path d="M540.08 832.37c-160.86-.22-293.15-131.09-292.49-294.1.64-158.87 131.34-292.84 296.79-290.62 157.81 2.12 288.63 131.5 288.04 293.66-.59 159.79-131.05 290.68-292.34 291.06zm.61-195.29c5.06-.16 10.32-1.52 14.73-5.4 5.37-4.74 10.23-9.99 15.29-15.04 35.5-35.42 70.94-70.91 106.48-106.29 6.4-6.37 9.56-13.61 8.44-22.76-1.42-11.58-12.31-21.59-25.98-20.4-6.71.59-12.02 3.78-16.7 8.47-33.64 33.73-67.34 67.4-100.96 101.15-1.59 1.59-2.44 1.53-3.96-.03-8.16-8.3-16.44-16.49-24.67-24.72-25.83-25.83-51.63-51.68-77.49-77.48-6.05-6.04-13.38-8.36-21.89-7.09-12.31 1.85-21.29 14.01-19.73 26.29.83 6.57 3.8 11.71 8.36 16.26 20.38 20.3 40.72 40.64 61.07 60.97 19.54 19.53 39.09 39.04 58.6 58.6 4.92 4.95 10.81 7.45 18.41 7.47z" style="fill:#0069d0"/></g></switch></svg>