<svg xmlns="http://www.w3.org/2000/svg" xml:space="preserve" style="enable-background:new 0 0 1080 1080" viewBox="0 0 1080 1080"><path d="M540.1 832.4c-160.9-.2-293.1-131.1-292.5-294.1.6-158.9 131.3-292.8 296.8-290.6 157.8 2.1 288.6 131.5 288 293.7-.6 159.7-131 290.6-292.3 291zm.6-195.3c5.1-.2 10.3-1.5 14.7-5.4 5.4-4.7 10.2-10 15.3-15 35.5-35.4 70.9-70.9 106.5-106.3 6.4-6.4 9.6-13.6 8.4-22.8-1.4-11.6-12.3-21.6-26-20.4-6.7.6-12 3.8-16.7 8.5-33.6 33.7-67.3 67.4-101 101.1-1.6 1.6-2.4 1.5-4 0-8.2-8.3-16.4-16.5-24.7-24.7-25.8-25.8-51.6-51.7-77.5-77.5-6.1-6-13.4-8.4-21.9-7.1-12.3 1.8-21.3 14-19.7 26.3.8 6.6 3.8 11.7 8.4 16.3 20.4 20.3 40.7 40.6 61.1 61 19.5 19.5 39.1 39 58.6 58.6 5 4.9 10.9 7.4 18.5 7.4z" style="fill:#fff"/></svg>